<svg width="200" height="454" viewBox="0 0 200 454" fill="none" xmlns="http://www.w3.org/2000/svg">
<g opacity="0.4">
<path fill-rule="evenodd" clip-rule="evenodd" d="M107.336 335.809L107.357 314.548C107.512 314.688 107.723 315.126 107.791 314.99C108.08 314.406 114.807 325.336 129.586 332.347C144.295 339.325 159.247 339.264 175.196 338.543C176.252 339.741 184.758 362.766 199.907 366.846C177.285 344.987 196.444 324.513 177.947 287.86C165.925 264.039 143.299 252.591 107.336 254.742L107.381 221.656C127.934 244.97 146.271 246.873 175.731 245.665C179.529 258.387 189.595 270.293 200 274.084C175.113 244.635 198.741 238.512 177.442 194.126C164.495 167.142 135.805 160.253 107.336 161.883L107.365 128.801C111.756 132.308 112.341 138.063 129.345 146.431C143.961 153.623 159.246 153.518 175.196 152.795C176.88 154.914 183.484 175.509 199.481 180.926C196.953 176.666 193.483 175.235 189.853 165.386C184 149.503 192.732 130.635 177.176 100.946C164.926 77.5656 142.685 67.0452 107.336 68.9958L107.326 0.302795L92.8053 0.237183L92.6337 68.9958C38.8417 65.9266 15.0026 94.9221 12.5289 141.056C11.9322 152.184 14.2057 161.461 6.37074 173.224C4.19202 176.496 2.03181 178.26 0.526642 180.901C9.946 177.601 21.2924 164.433 24.102 152.727C52.3197 154.323 75.543 151.077 92.4479 128.733L92.6516 161.883C62.5545 160.146 36.9303 167.05 22.6307 194.19C7.36398 223.165 16.0121 242.656 9.98811 258.651C7.02133 266.529 3.83376 269.306 0 274.096C10.684 269.999 20.1708 258.66 24.2757 245.651C44.7615 246.731 66.1796 245.775 82.8816 231.803C86.7854 228.537 89.0178 225.332 92.3296 221.613L92.6578 254.742C38.1582 251.518 14.5075 281.274 12.4689 327.994C11.81 343.09 14.1254 352.126 0.0800629 366.871C4.86349 365.58 12.6231 359.057 14.7424 356.098C18.0872 351.428 22.3186 345.609 23.991 338.518C40.4702 339.359 53.7113 339.618 69.9409 332.591C79.0497 328.647 83.7042 324.052 89.8956 317.528C90.5439 316.845 90.2659 317.115 91.0116 316.276L92.639 314.462C92.639 342.012 95.6632 331.766 82.0983 347.879C60.8203 373.155 57.0829 402.638 77.382 430.491C83.6859 439.141 91.0622 447.77 99.7186 454C107.139 450.488 117.601 437.331 122.281 430.887C138.014 409.223 141.088 385.726 127.42 361.8C119.622 348.148 108.469 337.949 107.336 335.809Z" fill="#98764A"/>
</g>
</svg>
